<?xml version="1.0" standalone="no"?>
<!DOCTYPE svg PUBLIC "-//W3C//DTD SVG 20010904//EN"
 "http://www.w3.org/TR/2001/REC-SVG-20010904/DTD/svg10.dtd">
<svg version="1.0" xmlns="http://www.w3.org/2000/svg"
 width="200.000000pt" height="200.000000pt" viewBox="0 0 200.000000 200.000000"
 preserveAspectRatio="xMidYMid meet">
<metadata>
Created by potrace 1.15, written by Peter Selinger 2001-2017
</metadata>
<g transform="translate(0.000000,200.000000) scale(0.100000,-0.100000)"
fill="#000000" stroke="none">
<path d="M807 1104 c-4 -4 -7 -36 -7 -71 0 -49 -3 -63 -15 -63 -9 0 -15 10
-15 26 0 22 -4 25 -27 22 -23 -2 -29 -8 -31 -35 -5 -50 28 -77 86 -70 63 7 73
24 70 117 -3 72 -4 75 -28 78 -14 2 -29 0 -33 -4z"/>
<path d="M910 1090 c-23 -23 -26 -72 -7 -89 8 -6 29 -14 48 -18 l34 -8 -45 -5
c-37 -4 -46 -9 -48 -27 -3 -22 0 -23 61 -23 75 0 90 11 85 67 -3 34 -6 39 -43
49 l-40 12 38 1 c34 1 37 3 37 31 0 29 -1 30 -50 30 -37 0 -55 -5 -70 -20z"/>
</g>
</svg>
